<svg width="29" height="20" viewBox="0 0 29 20" fill="none" xmlns="http://www.w3.org/2000/svg">
<rect x="0.5" width="28" height="20" rx="2" fill="white"/>
<mask id="mask0_1117_6501" style="mask-type:luminance" maskUnits="userSpaceOnUse" x="0" y="0" width="29" height="20">
<rect x="0.5" width="28" height="20" rx="2" fill="white"/>
</mask>
<g mask="url(#mask0_1117_6501)">
<rect x="0.5" width="28" height="20" fill="#0A17A7"/>
<path d="M31.2732 0.294434L21.8259 6.6665H28.4998V13.3335H21.8259L31.2732 19.7056L29.782 21.9165L17.8337 13.8569V21.3335H11.1667V13.856L-0.782471 21.9165L-2.27368 19.7056L7.17358 13.3335H0.499756V6.6665H7.17358L-2.27368 0.294434L-0.782471 -1.9165L11.1667 6.14307V-1.3335H17.8337V6.14209L29.782 -1.9165L31.2732 0.294434Z" fill="white"/>
<path d="M19.168 6.33219L31.8333 -2" stroke="#DB1F35" stroke-width="0.666667" stroke-linecap="round"/>
<path d="M20.5127 13.6975L31.8665 21.3503" stroke="#DB1F35" stroke-width="0.666667" stroke-linecap="round"/>
<path d="M8.50562 6.31055L-3.3374 -1.6709" stroke="#DB1F35" stroke-width="0.666667" stroke-linecap="round"/>
<path d="M9.79012 13.605L-3.3374 22.3105" stroke="#DB1F35" stroke-width="0.666667" stroke-linecap="round"/>
<path fill-rule="evenodd" clip-rule="evenodd" d="M0.5 12H12.5V20H16.5V12H28.5V8H16.5V0H12.5V8H0.5V12Z" fill="#E6273E"/>
</g>
</svg>
