<svg width="24" height="24" viewBox="0 0 24 24" fill="none" xmlns="http://www.w3.org/2000/svg">
<path fill-rule="evenodd" clip-rule="evenodd" d="M2 8.75352C2 5.52473 4.75008 3 8.02424 3H8.02624C9.54244 3 10.9355 3.53649 11.9999 4.42968C13.0642 3.53661 14.457 3 15.973 3H15.975C19.2492 3 22 5.52473 22 8.75352C22 8.78311 21.9989 8.80933 21.9981 8.82512C22.0203 10.3024 21.5085 11.7888 20.7728 13.1449C20.026 14.5215 19.0126 15.8305 17.9539 16.9594C16.8945 18.0891 15.7665 19.0634 14.7696 19.7645C14.272 20.1144 13.7913 20.4075 13.3556 20.618C12.9673 20.8057 12.5146 20.9781 12.078 20.997C12.0537 20.9989 12.0281 21 12.0014 21H11.9994C11.9715 21 11.9451 20.9988 11.9211 20.997C11.4848 20.9779 11.0324 20.8055 10.6443 20.6179C10.2086 20.4074 9.72784 20.1143 9.23021 19.7643C8.23331 19.0633 7.10525 18.089 6.04583 16.9593C4.98719 15.8304 3.97371 14.5214 3.22697 13.1449C2.49133 11.7888 1.97961 10.3024 2.00192 8.8252C2.0011 8.80922 2 8.78312 2 8.75352ZM4.00005 8.73564L4.00015 8.73744C4.00056 8.74477 4.00119 8.7563 4.00169 8.76975L4.00281 8.79936L4.00217 8.82899C3.9803 9.84528 4.33564 10.9942 4.98497 12.1912C5.62972 13.3798 6.52964 14.5514 7.5047 15.5912C8.47898 16.6301 9.50492 17.5125 10.3807 18.1284C10.8194 18.4369 11.2047 18.6675 11.5145 18.8172C11.8266 18.968 11.9776 18.995 12.0001 18.9983C12.0224 18.995 12.1733 18.9681 12.4854 18.8173C12.7951 18.6676 13.1804 18.4371 13.6191 18.1285C14.4948 17.5126 15.5208 16.6303 16.495 15.5913C17.4701 14.5515 18.37 13.3798 19.0148 12.1912C19.6642 10.9942 20.0196 9.84523 19.9978 8.82892L19.9972 8.79933L19.9983 8.76975C19.9986 8.76182 19.9989 8.75456 19.9993 8.74844C19.9995 8.74429 19.9997 8.74066 19.9998 8.73772L20 8.7356C19.9897 6.72195 18.2444 5 15.9758 5H15.9738C14.6579 5 13.5034 5.58786 12.7738 6.47912L12.0002 7.42424L11.2263 6.47929C10.496 5.58754 9.34246 5 8.02664 5H8.02464C5.756 5 4.01033 6.72197 4.00005 8.73564ZM12.2477 19.032C12.2529 19.0334 12.255 19.034 12.2527 19.0333L12.2477 19.032Z" fill="black"/>
</svg>
