<svg width="103" height="22" viewBox="0 0 103 22" fill="none" xmlns="http://www.w3.org/2000/svg">
<path d="M4.48688 19.9499C4.48688 21.3166 3.75984 22 2.30576 22C1.59949 22 1.03863 21.8266 0.623177 21.4798C0.207726 21.1331 0 20.6231 0 19.9499V7.9249C0 6.00742 0.259657 4.47752 0.778972 3.33519C1.29829 2.17246 2.14996 1.32591 3.334 0.795548C4.51803 0.265183 6.09675 0 8.07015 0C10.6875 0 12.6609 0.601762 13.9903 1.80529C15.3405 2.98841 16.0157 5.02828 16.0157 7.9249V19.9499C16.0157 21.3166 15.2886 22 13.8345 22C13.1283 22 12.5674 21.8266 12.152 21.4798C11.7365 21.1331 11.5288 20.6231 11.5288 19.9499V7.9249C11.5288 6.41539 11.2587 5.34446 10.7186 4.7121C10.1993 4.05934 9.3165 3.73296 8.07015 3.73296C7.09383 3.73296 6.34602 3.87575 5.82671 4.16133C5.30739 4.44692 4.95426 4.89569 4.76731 5.50765C4.58035 6.11961 4.48688 6.92536 4.48688 7.9249V19.9499Z" fill="black"/>
<path d="M24.227 22C22.1497 22 20.5295 21.5308 19.3662 20.5925C18.2029 19.6338 17.6213 18.3996 17.6213 16.8901C17.6213 15.1154 18.3795 13.8303 19.8959 13.0348C21.4331 12.2392 23.6765 11.9638 26.6262 12.2086C26.4808 11.2703 26.1796 10.6379 25.7226 10.3115C25.2656 9.96477 24.7151 9.79138 24.0712 9.79138C23.5519 9.79138 23.1157 9.82197 22.7625 9.88317C22.4302 9.92397 22.1186 9.97497 21.8278 10.0362C21.5369 10.0974 21.1838 10.128 20.7684 10.128C20.2075 10.128 19.7609 10.0362 19.4285 9.85257C19.0962 9.64859 18.93 9.25081 18.93 8.65925C18.93 7.8229 19.2935 7.21094 20.0205 6.82337C20.7684 6.41539 21.942 6.21141 23.5415 6.21141C26.0757 6.21141 27.9557 6.92536 29.1812 8.35327C30.4068 9.76078 31.0196 11.6477 31.0196 14.0139C31.0196 16.7473 30.5107 18.7668 29.4928 20.0723C28.4958 21.3574 26.7405 22 24.227 22ZM22.1082 16.8901C22.1082 18.0529 22.9079 18.6342 24.5074 18.6342C25.0267 18.6342 25.4318 18.5424 25.7226 18.3588C26.0134 18.1752 26.2212 17.8081 26.3458 17.2573C26.4912 16.7065 26.5951 15.8804 26.6574 14.7789C26.5535 14.8809 26.4185 14.9522 26.2523 14.993C26.0861 15.0338 25.92 15.0542 25.7538 15.0542C24.3828 15.0542 23.4272 15.1868 22.8872 15.452C22.3678 15.6968 22.1082 16.1762 22.1082 16.8901Z" fill="black"/>
<path d="M35.0131 22C33.5174 22 32.7696 21.3064 32.7696 19.9193V12.5758C32.7696 10.6175 33.4032 9.06722 34.6703 7.9249C35.9582 6.78257 37.6512 6.21141 39.7492 6.21141C41.8472 6.21141 43.5298 6.78257 44.797 7.9249C46.0849 9.06722 46.7288 10.6175 46.7288 12.5758V19.9193C46.7288 21.3064 45.981 22 44.4854 22C42.9897 22 42.2419 21.3064 42.2419 19.9193V12.8206C42.2419 11.8618 42.0238 11.1377 41.5876 10.6481C41.1514 10.1382 40.5386 9.88317 39.7492 9.88317C38.9599 9.88317 38.3471 10.1382 37.9108 10.6481C37.4746 11.1377 37.2565 11.8618 37.2565 12.8206V19.9193C37.2565 21.3064 36.5087 22 35.0131 22Z" fill="black"/>
<path d="M51.537 22C50.0414 22 49.2936 21.3064 49.2936 19.9193V12.5758C49.2936 10.6175 49.9271 9.06722 51.1943 7.9249C52.4822 6.78257 54.1751 6.21141 56.2731 6.21141C58.3712 6.21141 60.0538 6.78257 61.3209 7.9249C62.6088 9.06722 63.2527 10.6175 63.2527 12.5758V19.9193C63.2527 21.3064 62.5049 22 61.0093 22C59.5137 22 58.7659 21.3064 58.7659 19.9193V12.8206C58.7659 11.8618 58.5477 11.1377 58.1115 10.6481C57.6753 10.1382 57.0625 9.88317 56.2731 9.88317C55.4838 9.88317 54.871 10.1382 54.4348 10.6481C53.9986 11.1377 53.7804 11.8618 53.7804 12.8206V19.9193C53.7804 21.3064 53.0326 22 51.537 22Z" fill="black"/>
<path d="M72.2051 22C69.9824 22 68.2271 21.3778 66.9392 20.1335C65.6513 18.8892 65.0074 16.8799 65.0074 14.1057C65.0074 11.3111 65.6513 9.30181 66.9392 8.07789C68.2271 6.83357 69.9824 6.21141 72.2051 6.21141C74.4277 6.21141 76.183 6.83357 77.4709 8.07789C78.7588 9.30181 79.4028 11.3111 79.4028 14.1057C79.4028 16.8799 78.7588 18.8892 77.4709 20.1335C76.183 21.3778 74.4277 22 72.2051 22ZM72.2051 18.3282C72.7867 18.3282 73.2749 18.216 73.6695 17.9917C74.0642 17.7469 74.3654 17.3185 74.5731 16.7065C74.8016 16.0946 74.9159 15.2276 74.9159 14.1057C74.9159 12.9838 74.8016 12.1168 74.5731 11.5049C74.3654 10.8929 74.0642 10.4747 73.6695 10.2503C73.2749 10.0056 72.7867 9.88317 72.2051 9.88317C71.6442 9.88317 71.1561 10.0056 70.7406 10.2503C70.3459 10.4747 70.0343 10.8929 69.8058 11.5049C69.5981 12.1168 69.4942 12.9838 69.4942 14.1057C69.4942 15.2276 69.5981 16.0946 69.8058 16.7065C70.0343 17.3185 70.3459 17.7469 70.7406 17.9917C71.1561 18.216 71.6442 18.3282 72.2051 18.3282Z" fill="black"/>
<path d="M86.5481 22C85.6757 22 84.9902 21.7552 84.4916 21.2656C83.9931 20.7761 83.5361 19.9499 83.1206 18.7872L80.0048 9.516C79.8386 8.96523 79.7555 8.56746 79.7555 8.32267C79.7555 7.73111 79.9736 7.22114 80.4098 6.79277C80.8668 6.344 81.4277 6.11961 82.0924 6.11961C82.6117 6.11961 83.0479 6.242 83.4011 6.48679C83.775 6.73157 84.0243 7.06815 84.1489 7.49652L87.109 17.1655C87.9191 15.8804 88.4904 14.6973 88.8227 13.6161C89.1758 12.535 89.3524 11.3621 89.3524 10.0974L89.2901 7.98609C89.2901 7.45573 89.5082 7.01715 89.9444 6.67038C90.3807 6.3032 90.9207 6.11961 91.5647 6.11961C91.9386 6.11961 92.271 6.2522 92.5618 6.51739C92.8526 6.78257 93.133 7.24154 93.4031 7.8943C93.59 8.34307 93.7977 8.92443 94.0262 9.63839C94.2755 10.3523 94.5767 11.3111 94.9299 12.5146C95.3038 13.6977 95.7608 15.248 96.3008 17.1655C97.0279 16.37 97.5991 15.3908 98.0146 14.2281C98.43 13.045 98.5858 11.6681 98.482 10.0974L98.3573 7.98609C98.3366 7.45573 98.5547 7.01715 99.0117 6.67038C99.4894 6.3032 100.061 6.11961 100.725 6.11961C101.972 6.11961 102.688 6.70097 102.875 7.8637C102.917 8.12888 102.948 8.43486 102.969 8.78164C102.99 9.12842 103 9.4752 103 9.82197C103 11.3111 102.761 12.8104 102.283 14.3199C101.826 15.809 101.182 17.1859 100.352 18.4506C99.479 19.7765 98.7209 20.7047 98.0769 21.235C97.4537 21.745 96.7682 22 96.0204 22C95.5219 22 95.0129 21.7246 94.4936 21.1739C93.9951 20.6027 93.5277 19.8275 93.0915 18.8484C92.6553 17.8693 92.3021 16.7677 92.0321 15.5438C91.8244 16.1762 91.492 16.8697 91.035 17.6245C90.5988 18.3588 90.1002 19.0626 89.5394 19.7357C88.9785 20.4089 88.428 20.9597 87.888 21.388C87.3686 21.796 86.922 22 86.5481 22Z" fill="black"/>
</svg>
