<svg width="24" height="24" viewBox="0 0 24 24" fill="none" xmlns="http://www.w3.org/2000/svg">
<path d="M16 8C18.2091 8 20 9.79086 20 12V17C20 19.2091 18.2091 21 16 21H8C5.79086 21 4 19.2091 4 17V12C4 9.79086 5.79086 8 8 8C8.55228 8 9 8.44772 9 9C9 9.55228 8.55228 10 8 10C6.89543 10 6 10.8954 6 12V17C6 18.1046 6.89543 19 8 19H16C17.1046 19 18 18.1046 18 17V12C18 10.8954 17.1046 10 16 10C15.4477 10 15 9.55228 15 9C15 8.44772 15.4477 8 16 8ZM12 2C12.2478 2 12.5303 2.12994 12.7002 2.2998L15.7002 5.2998C16.1002 5.6998 16.1002 6.3002 15.7002 6.7002C15.3002 7.1002 14.6998 7.1002 14.2998 6.7002L13 5.40039V13C13 13.6 12.6 14 12 14C11.4 14 11 13.6 11 13V5.40039L9.7002 6.7002C9.3002 7.1002 8.6998 7.1002 8.2998 6.7002C7.89981 6.3002 7.89981 5.6998 8.2998 5.2998L11.2998 2.2998C11.4684 2.13123 11.7563 2 12 2Z" fill="black"/>
</svg>
