<svg width="28" height="29" viewBox="0 0 28 29" fill="none" xmlns="http://www.w3.org/2000/svg">
<path d="M20.6579 4.74257C21.8567 3.70022 23.6578 3.76288 24.781 4.88612C25.9039 6.00933 25.9666 7.80962 24.9245 9.00819L14.2956 21.2308C14.0562 23.9963 11.7356 26.1664 8.90795 26.1664H4.70189C4.03828 26.1664 3.49996 25.6288 3.49974 24.9652V20.7582C3.49988 17.9309 5.67015 15.6103 8.43529 15.3705L20.6579 4.74257ZM8.90795 17.7543C7.24875 17.7544 5.90419 19.099 5.90404 20.7582V23.7631H8.90795C10.5673 23.7631 11.9128 22.4175 11.9128 20.7582C11.9127 19.099 10.5672 17.7543 8.90795 17.7543ZM23.0808 6.58534C22.8503 6.355 22.4811 6.34222 22.2351 6.55604L11.4148 15.9652C12.3901 16.4764 13.1907 17.2761 13.7019 18.2514L23.1101 7.43104C23.324 7.18508 23.3113 6.81581 23.0808 6.58534ZM5.28978 6.66933C5.51356 6.22176 6.15291 6.22176 6.3767 6.66933L7.1599 8.23573C7.21868 8.35307 7.314 8.44853 7.43138 8.50722L8.99779 9.29042C9.44501 9.51428 9.44505 10.1525 8.99779 10.3764L7.43138 11.1596C7.31396 11.2183 7.21868 11.3136 7.1599 11.431L6.3767 12.9975C6.15291 13.445 5.51356 13.445 5.28978 12.9975L4.50658 11.431C4.44781 11.3136 4.35252 11.2183 4.23509 11.1596L2.66869 10.3764C2.22142 10.1525 2.22146 9.51428 2.66869 9.29042L4.23509 8.50722C4.35247 8.44853 4.44781 8.35308 4.50658 8.23573L5.28978 6.66933ZM10.1374 3.05702C10.2866 2.75866 10.7129 2.75867 10.862 3.05702L11.3845 4.10097C11.4237 4.17931 11.4867 4.24343 11.5652 4.28261L12.6091 4.80409C12.9075 4.95328 12.9075 5.37952 12.6091 5.5287L11.5652 6.05116C11.4869 6.09029 11.4237 6.15363 11.3845 6.23183L10.862 7.27577C10.7129 7.57414 10.2866 7.57414 10.1374 7.27577L9.61595 6.23183C9.57678 6.15348 9.51266 6.09032 9.43431 6.05116L8.39037 5.5287C8.092 5.37952 8.092 4.95328 8.39037 4.80409L9.43431 4.28261C9.51266 4.24343 9.57678 4.17931 9.61595 4.10097L10.1374 3.05702Z" fill="#0098FF"/>
</svg>
