<svg width="28" height="29" viewBox="0 0 28 29" fill="none" xmlns="http://www.w3.org/2000/svg">
<path d="M14.0003 4C14.3902 4.00012 14.7547 4.19507 14.971 4.51953L19.0657 10.6621L25.1448 7.62305C25.5448 7.42308 26.0239 7.46944 26.3782 7.74219C26.7325 8.01503 26.9 8.46653 26.8089 8.9043L24.2786 21.0469C23.9405 22.6698 22.5106 23.8329 20.8528 23.833H7.14677C5.48907 23.8328 4.05909 22.6697 3.72099 21.0469L1.19072 8.9043C1.09967 8.46655 1.26712 8.01502 1.62138 7.74219C1.97567 7.46938 2.4548 7.42317 2.85478 7.62305L8.93388 10.6621L13.0296 4.51953C13.246 4.19507 13.6103 4 14.0003 4ZM10.304 12.8135C9.97766 13.303 9.33804 13.473 8.81181 13.21L3.96708 10.7881L6.00517 20.5713C6.11787 21.1121 6.59439 21.4998 7.14677 21.5H20.8528C21.4054 21.4999 21.8817 21.1121 21.9944 20.5713L24.0325 10.7881L19.1888 13.21C18.6625 13.4731 18.022 13.303 17.6956 12.8135L14.0003 7.26953L10.304 12.8135ZM14.0003 15.3887C14.9666 15.3889 15.7503 16.1723 15.7503 17.1387C15.7501 18.1049 14.9665 18.8885 14.0003 18.8887C13.0339 18.8887 12.2505 18.105 12.2503 17.1387C12.2503 16.1722 13.0338 15.3887 14.0003 15.3887Z" fill="#FF9500"/>
</svg>
