<svg width="28" height="29" viewBox="0 0 28 29" fill="none" xmlns="http://www.w3.org/2000/svg">
<path d="M5.83325 11C5.52383 11 5.22709 11.1229 5.00829 11.3417C4.7895 11.5605 4.66659 11.8572 4.66659 12.1667V21.5C4.66659 21.8094 4.7895 22.1062 5.00829 22.325C5.22709 22.5437 5.52383 22.6667 5.83325 22.6667H22.1666C22.476 22.6667 22.7728 22.5437 22.9915 22.325C23.2103 22.1062 23.3333 21.8094 23.3333 21.5V12.1667C23.3333 11.8572 23.2103 11.5605 22.9915 11.3417C22.7728 11.1229 22.476 11 22.1666 11H5.83325ZM8.16658 8.66667V7.5C8.16658 6.57174 8.53533 5.6815 9.19171 5.02513C9.84809 4.36875 10.7383 4 11.6666 4H16.3333C17.2615 4 18.1517 4.36875 18.8081 5.02513C19.4645 5.6815 19.8333 6.57174 19.8333 7.5V8.66667H22.1666C23.0948 8.66667 23.9851 9.03542 24.6415 9.69179C25.2978 10.3482 25.6666 11.2384 25.6666 12.1667V21.5C25.6666 22.4283 25.2978 23.3185 24.6415 23.9749C23.9851 24.6313 23.0948 25 22.1666 25H5.83325C4.90499 25 4.01476 24.6313 3.35838 23.9749C2.702 23.3185 2.33325 22.4283 2.33325 21.5L2.33325 12.1667C2.33325 11.2384 2.702 10.3482 3.35838 9.69179C4.01476 9.03542 4.90499 8.66667 5.83325 8.66667H8.16658ZM10.4999 8.66667H17.4999V7.5C17.4999 7.19058 17.377 6.89383 17.1582 6.67504C16.9394 6.45625 16.6427 6.33333 16.3333 6.33333H11.6666C11.3572 6.33333 11.0604 6.45625 10.8416 6.67504C10.6228 6.89383 10.4999 7.19058 10.4999 7.5V8.66667ZM12.8333 13.3333H15.1666V20.3333H12.8333V13.3333ZM10.4999 15.6667H17.4999V18H10.4999V15.6667Z" fill="#FF3B30"/>
</svg>
