<svg width="28" height="29" viewBox="0 0 28 29" fill="none" xmlns="http://www.w3.org/2000/svg">
<path d="M17.3447 14.2793C18.1699 12.3067 20.9473 12.3067 21.7725 14.2793L25.5752 23.3701C25.8249 23.9676 25.5465 24.6554 24.9531 24.9072C24.3593 25.1589 23.6749 24.8789 23.4248 24.2812L22.6846 22.5127H16.4326L15.6934 24.2812C15.4433 24.879 14.7589 25.1589 14.165 24.9072C13.5714 24.6556 13.2923 23.9677 13.542 23.3701L17.3447 14.2793ZM19.5166 15.1582C19.5146 15.1595 19.5127 15.1608 19.5107 15.1631C19.5088 15.1653 19.5023 15.1732 19.4951 15.1904L17.415 20.1641H21.7021L19.6221 15.1904C19.6149 15.1732 19.6083 15.1653 19.6064 15.1631C19.6045 15.1608 19.6027 15.1595 19.6006 15.1582C19.5951 15.1547 19.5806 15.1484 19.5586 15.1484C19.5366 15.1485 19.522 15.1548 19.5166 15.1582ZM8.44141 4C9.08549 4.0001 9.60716 4.52556 9.60742 5.17383V6.4873H13.3828C14.0269 6.48757 14.5488 7.01274 14.5488 7.66113C14.5488 8.30952 14.0269 8.8347 13.3828 8.83496H12.5488C12.1628 11.2571 11.3877 13.2878 10.1172 14.9082C11.0638 15.5878 12.2306 16.1085 13.666 16.4697C14.2911 16.627 14.6719 17.2644 14.5156 17.8936C14.3594 18.5226 13.7256 18.9052 13.1006 18.748C11.2825 18.2906 9.7261 17.5822 8.44043 16.5791C7.15517 17.5814 5.60026 18.2898 3.7832 18.7471C3.15811 18.9044 2.52444 18.5218 2.36816 17.8926C2.21208 17.2636 2.592 16.6262 3.2168 16.4688C4.65184 16.1076 5.81822 15.5865 6.76465 14.9072C5.49488 13.287 4.72084 11.2565 4.33496 8.83496H3.5C2.85567 8.83496 2.33301 8.30969 2.33301 7.66113C2.33301 7.01258 2.85567 6.4873 3.5 6.4873H7.27441V5.17383C7.27467 4.5255 7.79724 4 8.44141 4ZM6.70215 8.83496C7.03736 10.6804 7.61938 12.1232 8.44043 13.248C9.26204 12.123 9.84626 10.6811 10.1816 8.83496H6.70215Z" fill="#FF3B30"/>
</svg>
