<svg width="28" height="29" viewBox="0 0 28 29" fill="none" xmlns="http://www.w3.org/2000/svg">
<path fill-rule="evenodd" clip-rule="evenodd" d="M14.0014 5.16671C12.3906 5.16671 11.0847 6.47253 11.0847 8.08337C11.0847 9.69422 12.3906 11 14.0014 11C15.6122 11 16.918 9.69421 16.918 8.08337C16.918 6.47254 15.6122 5.16671 14.0014 5.16671ZM8.7514 8.08337C8.7514 5.18388 11.1019 2.83337 14.0014 2.83337C16.9009 2.83337 19.2514 5.18388 19.2514 8.08337C19.2514 10.9829 16.9009 13.3334 14.0014 13.3334C11.1019 13.3334 8.7514 10.9829 8.7514 8.08337ZM4.72007 20.9354C6.10934 17.1789 9.53086 14.5 14.0014 14.5C15.4271 14.5 16.7573 14.7734 17.9542 15.2775C18.548 15.5276 18.8267 16.2117 18.5766 16.8055C18.3265 17.3994 17.6424 17.678 17.0485 17.4279C16.1469 17.0482 15.1255 16.8334 14.0014 16.8334C10.5593 16.8334 7.97744 18.8545 6.90853 21.7448L6.90852 21.7448C6.82877 21.9604 6.86941 22.1485 7.01361 22.3204C7.17389 22.5114 7.46261 22.6667 7.81438 22.6667H12.8347C13.479 22.6667 14.0014 23.189 14.0014 23.8334C14.0014 24.4777 13.479 25 12.8347 25H7.81438C6.79121 25 5.84143 24.5535 5.22617 23.8202C4.59482 23.0678 4.32289 22.0093 4.72007 20.9354ZM23.935 16.9996C24.4875 17.3311 24.6666 18.0478 24.3351 18.6003L20.8351 24.4336C20.6652 24.7169 20.3831 24.9148 20.059 24.9783C19.7348 25.0418 19.399 24.9649 19.1347 24.7667L16.8014 23.0167C16.2859 22.6301 16.1814 21.8988 16.568 21.3834C16.9546 20.8679 17.6859 20.7634 18.2014 21.15L19.4998 22.1239L22.3343 17.3998C22.6658 16.8473 23.3824 16.6681 23.935 16.9996Z" fill="#AF52DE"/>
</svg>
