<svg width="28" height="29" viewBox="0 0 28 29" fill="none" xmlns="http://www.w3.org/2000/svg">
<path fill-rule="evenodd" clip-rule="evenodd" d="M11.6666 5.16671C10.0309 5.16671 8.65464 6.28981 8.27227 7.80856C8.15304 8.28216 7.75143 8.63138 7.26586 8.68368C5.80488 8.84105 4.66659 10.0801 4.66659 11.5834C4.66659 12.3997 5.00044 13.136 5.54209 13.6668C5.766 13.8862 5.89218 14.1865 5.89218 14.5C5.89218 14.8135 5.766 15.1139 5.54209 15.3333C5.00044 15.8641 4.66659 16.6004 4.66659 17.4167C4.66659 18.6343 5.41296 19.6802 6.47761 20.1168C6.80821 20.2524 7.05846 20.532 7.15669 20.8755C7.64532 22.5844 9.21993 23.8334 11.0833 23.8334C11.7109 23.8334 12.3036 23.6925 12.8333 23.4408V20.3334C12.8333 19.0447 11.7886 18 10.4999 18C9.85559 18 9.33325 17.4777 9.33325 16.8334C9.33325 16.189 9.85559 15.6667 10.4999 15.6667C11.3499 15.6667 12.1469 15.8939 12.8333 16.291V5.36551C12.4691 5.23682 12.0768 5.16671 11.6666 5.16671ZM15.1666 5.36551V8.66671C15.1666 9.95538 16.2112 11 17.4999 11C18.1443 11 18.6666 11.5224 18.6666 12.1667C18.6666 12.811 18.1443 13.3334 17.4999 13.3334C16.6499 13.3334 15.853 13.1061 15.1666 12.7091V23.4407C15.6963 23.6925 16.289 23.8334 16.9166 23.8334C18.7799 23.8334 20.3545 22.5844 20.8432 20.8755C20.9414 20.5319 21.1916 20.2524 21.5222 20.1168C22.5868 19.6802 23.3333 18.6343 23.3333 17.4167C23.3333 16.6004 22.9994 15.8641 22.4578 15.3333C22.2338 15.1139 22.1077 14.8136 22.1077 14.5C22.1077 14.1865 22.2338 13.8862 22.4578 13.6668C22.9994 13.136 23.3333 12.3997 23.3333 11.5834C23.3333 10.0801 22.1949 8.84105 20.734 8.68368C20.2485 8.63137 19.8469 8.28218 19.7276 7.8086C19.3452 6.28981 17.9689 5.16671 16.3333 5.16671C15.9231 5.16671 15.5307 5.23682 15.1666 5.36551ZM13.9999 25.4668C13.1242 25.9143 12.132 26.1667 11.0833 26.1667C8.34318 26.1667 6.00669 24.4501 5.08591 22.0355C3.44804 21.1482 2.33325 19.4138 2.33325 17.4167C2.33325 16.3379 2.65951 15.3341 3.21756 14.5C2.65951 13.666 2.33325 12.6622 2.33325 11.5834C2.33325 9.14527 3.99443 7.09642 6.24723 6.50513C7.10604 4.35405 9.20755 2.83337 11.6666 2.83337C12.4947 2.83337 13.2845 3.00656 13.9999 3.31908C14.7154 3.00656 15.5052 2.83337 16.3333 2.83337C18.7923 2.83337 20.8938 4.35406 21.7526 6.50513C24.0054 7.09642 25.6666 9.14527 25.6666 11.5834C25.6666 12.6622 25.3404 13.666 24.7823 14.5C25.3404 15.3341 25.6666 16.3379 25.6666 17.4167C25.6666 19.4138 24.5518 21.1482 22.9139 22.0355C21.9931 24.4501 19.6566 26.1667 16.9166 26.1667C15.8678 26.1667 14.8757 25.9143 13.9999 25.4668Z" fill="#19C8D1"/>
</svg>
