<svg width="28" height="29" viewBox="0 0 28 29" fill="none" xmlns="http://www.w3.org/2000/svg">
<path d="M14 2.83301C20.4434 2.83301 25.667 8.05668 25.667 14.5C25.667 20.9434 20.4434 26.167 14 26.167C7.55668 26.167 2.33301 20.9434 2.33301 14.5C2.33301 8.05668 7.55668 2.83301 14 2.83301ZM10.4404 15.667C10.2165 17.9184 9.35029 19.9808 8.03125 21.6709C9.36725 22.784 11.0186 23.5314 12.833 23.7578V15.667H10.4404ZM15.167 23.7578C16.9806 23.5315 18.6311 22.7842 19.9668 21.6719C18.6477 19.9817 17.7833 17.9186 17.5596 15.667H15.167V23.7578ZM19.9072 15.667C20.1042 17.2484 20.6967 18.7049 21.583 19.9385C22.4685 18.7057 23.0606 17.2479 23.2578 15.667H19.9072ZM4.74219 15.667C4.93937 17.2473 5.53015 18.7051 6.41504 19.9375C7.30133 18.7041 7.89369 17.2481 8.09082 15.667H4.74219ZM6.41504 9.06152C5.53 10.2942 4.93939 11.7526 4.74219 13.333H8.0918C7.89461 11.7516 7.30159 10.2951 6.41504 9.06152ZM12.833 5.24023C11.0184 5.46662 9.36637 6.21455 8.03027 7.32812C9.34976 9.01834 10.2145 11.0812 10.4385 13.333H12.833V5.24023ZM21.583 9.06152C20.6966 10.295 20.1054 11.7518 19.9082 13.333H23.2578C23.0606 11.7522 22.4684 10.2944 21.583 9.06152ZM15.167 13.333H17.5586C17.7825 11.0813 18.6485 9.01831 19.9678 7.32812C18.6319 6.21508 16.9811 5.46655 15.167 5.24023V13.333Z" fill="#D58000"/>
</svg>
