<svg width="28" height="29" viewBox="0 0 28 29" fill="none" xmlns="http://www.w3.org/2000/svg">
<path fill-rule="evenodd" clip-rule="evenodd" d="M13.399 4C14.0423 4 14.5638 4.52233 14.5638 5.16667H23.2998C23.9432 5.16667 24.4647 5.689 24.4647 6.33333C24.4647 6.97767 23.9432 7.5 23.2998 7.5C23.2998 8.14433 22.7783 8.66667 22.135 8.66667C21.4917 8.66667 20.9702 8.14433 20.9702 7.5H5.82768V19.1667H11.6517C12.295 19.1667 12.8165 19.689 12.8165 20.3333C12.8165 20.9777 12.295 21.5 11.6517 21.5H3.49806C2.85476 21.5 2.33325 20.9777 2.33325 20.3333C2.33325 19.689 2.85476 19.1667 3.49806 19.1667V7.5C2.85476 7.5 2.33325 6.97767 2.33325 6.33333C2.33325 5.689 2.85476 5.16667 3.49806 5.16667H12.2341C12.2341 4.52233 12.7556 4 13.399 4ZM20.9702 13.3333C20.3269 13.3333 19.8054 13.8556 19.8054 14.5C19.8054 15.1444 20.3269 15.6667 20.9702 15.6667C21.6136 15.6667 22.135 15.1444 22.135 14.5C22.135 13.8556 21.6136 13.3333 20.9702 13.3333ZM17.4758 14.5C17.4758 12.567 19.0403 11 20.9702 11C22.9002 11 24.4647 12.567 24.4647 14.5C24.4647 16.433 22.9002 18 20.9702 18C19.0403 18 17.4758 16.433 17.4758 14.5ZM15.278 22.1237C16.2045 20.0005 18.4375 18.5833 20.9702 18.5833C23.503 18.5833 25.736 20.0005 26.6624 22.1237C26.9915 22.878 26.8171 23.6494 26.3782 24.1875C25.9596 24.7007 25.3138 25 24.6332 25H17.3072C16.6267 25 15.9808 24.7007 15.5623 24.1875C15.1234 23.6494 14.9491 22.8779 15.278 22.1237ZM17.6181 22.6667H24.3223C23.6979 21.6566 22.467 20.9167 20.9702 20.9167C19.4734 20.9167 18.2425 21.6566 17.6181 22.6667Z" fill="#34C759"/>
</svg>
