<svg width="28" height="29" viewBox="0 0 28 29" fill="none" xmlns="http://www.w3.org/2000/svg">
<path d="M14.0586 27.3331H13.9414C13.9609 27.3331 13.9805 27.3313 14 27.3311C14.0195 27.3313 14.0391 27.3331 14.0586 27.3331ZM10.543 2.98344C12.4181 1.22785 15.5819 1.22785 17.457 2.98344C17.9253 3.45115 18.2769 3.68557 18.3945 3.80278H19.6846C20.9736 3.8029 22.2627 4.38881 23.083 5.32524C24.0205 6.2617 24.4892 7.43217 24.6064 8.71977V10.0079C24.6115 10.0129 24.9613 10.3633 25.4268 10.9444C26.3643 11.8809 26.833 13.1684 26.833 14.4561C26.833 15.7438 26.3643 17.0313 25.4268 17.9678C24.9581 18.4359 24.7237 18.7872 24.6064 18.9043V20.1924C24.6064 21.48 24.0205 22.7675 23.083 23.587C22.1455 24.5234 20.9736 24.9923 19.6846 25.1094H18.3945C18.3817 25.1222 18.0321 25.4693 17.457 25.9288C16.5337 26.8509 15.2695 27.3171 14 27.3311C12.7305 27.3171 11.4663 26.8509 10.543 25.9288C10.0747 25.461 9.72303 25.2266 9.60547 25.1094H8.31543C7.02637 25.1093 5.7373 24.5234 4.91699 23.587C3.97954 22.6505 3.51076 21.48 3.39355 20.1924V18.9043C3.38671 18.8975 3.03742 18.5474 2.57324 17.9678C1.63569 17.0313 1.16699 15.7438 1.16699 14.4561C1.167 13.1684 1.63567 11.8809 2.57324 10.9444C3.04197 10.4762 3.27634 10.125 3.39355 10.0079V8.71977C3.3936 7.43216 3.97952 6.14467 4.91699 5.32524C5.8545 4.3888 7.02638 3.9199 8.31543 3.80278H9.60547C9.61911 3.7892 9.96861 3.44241 10.543 2.98344ZM14.0586 3.91997C13.3554 3.91997 12.6524 4.15483 12.1836 4.62309C11.2469 5.55871 11.0118 5.67605 10.8945 5.79301C10.7774 5.79301 10.5429 6.02714 10.3086 6.02739H8.5498C7.72963 6.02751 7.14352 6.37854 6.6748 6.84672C6.20606 7.31495 5.85454 8.01745 5.85449 8.71977V10.4756C5.85449 10.5927 5.73732 10.9445 5.62012 11.0616C5.50287 11.2956 5.26821 11.5298 4.44824 12.4659C3.97948 12.9341 3.74515 13.6366 3.74512 14.3389C3.74512 15.0413 3.97951 15.7437 4.44824 16.212C5.38584 17.1485 5.50292 17.383 5.62012 17.5C5.62037 17.6172 5.85425 17.9678 5.85449 18.085V19.9581C5.85449 20.6603 6.20611 21.3628 6.6748 21.8311C7.14351 22.2993 7.84675 22.6503 8.5498 22.6504H10.3086C10.4262 22.6507 10.7775 22.7679 10.8945 22.8848C11.1288 23.0019 11.2463 23.2365 12.3008 24.0557C13.3555 24.992 14.996 24.992 16.0508 24.0557C16.988 23.1195 17.2226 23.0018 17.3398 22.8848C17.4569 22.8848 17.8082 22.651 17.9258 22.6504H19.8018C20.5048 22.6503 21.208 22.2993 21.6768 21.8311C22.1455 21.3628 22.4971 20.6604 22.4971 19.9581V18.2022C22.4971 18.0851 22.6143 17.7344 22.7314 17.6172C22.8486 17.3831 23.0829 17.1485 23.9033 16.212C24.3721 15.7437 24.6064 15.0413 24.6064 14.3389C24.6064 13.6366 24.3721 12.9341 23.9033 12.4659C22.9665 11.5301 22.8486 11.2959 22.7314 11.1788C22.7314 11.0617 22.4971 10.8269 22.4971 10.5928V8.71977C22.497 8.01744 22.1455 7.31495 21.6768 6.84672C21.208 6.37855 20.5048 6.02752 19.8018 6.02739H18.043C17.8087 6.02725 17.5742 5.91001 17.457 5.79301C17.2228 5.67589 16.9878 5.44202 16.0508 4.62309C15.582 4.15483 14.879 3.91997 14.1758 3.91997H14.0586ZM17.5107 10.7139C18.06 10.1653 18.9508 10.1653 19.5 10.7139C20.0489 11.2625 20.049 12.1517 19.5 12.7002L13.583 18.6104C13.0338 19.159 12.143 19.159 11.5938 18.6104L8.61035 15.6299C8.06143 15.0813 8.06134 14.1921 8.61035 13.6436C9.15958 13.095 10.0504 13.095 10.5996 13.6436L12.5889 15.6299L17.5107 10.7139Z" fill="#00C7BE"/>
</svg>
