<svg width="28" height="29" viewBox="0 0 28 29" fill="none" xmlns="http://www.w3.org/2000/svg">
<path d="M25.667 22.667C24.6182 22.667 24.1635 23.0298 23.4775 23.5781C22.6843 24.2115 21.6986 24.9999 19.8301 25C17.9622 25 16.9758 24.2116 16.1836 23.5781C15.5222 23.0497 15.043 22.667 13.9932 22.667C12.9455 22.667 12.4915 23.0288 11.8066 23.5771C11.0146 24.2118 10.0274 24.9999 8.16113 25C6.29473 25 5.30969 24.2118 4.51758 23.5771C3.83274 23.03 3.37951 22.667 2.33301 22.667V20.333C4.19967 20.333 5.18342 21.1222 5.97559 21.7568C6.66042 22.304 7.11347 22.667 8.16113 22.667C9.21092 22.6669 9.6627 22.3041 10.3486 21.7559C11.1408 21.1224 12.1254 20.333 13.9932 20.333C15.8621 20.3331 16.8483 21.1224 17.6416 21.7559C18.3274 22.304 18.7814 22.667 19.8301 22.667C20.8797 22.6669 21.3592 22.2842 22.0205 21.7559C22.8127 21.1224 23.7992 20.333 25.667 20.333V22.667ZM25.667 16.833C24.6182 16.833 24.1635 17.1958 23.4775 17.7441C22.6843 18.3776 21.6989 19.1669 19.8301 19.167C17.9622 19.167 16.9758 18.3776 16.1836 17.7441C15.5224 17.2159 15.0428 16.833 13.9932 16.833C12.9456 16.833 12.4914 17.1949 11.8066 17.7432C11.0145 18.3778 10.0276 19.1669 8.16113 19.167C6.29448 19.167 5.30974 18.3778 4.51758 17.7432C3.83274 17.196 3.37951 16.833 2.33301 16.833V14.5C4.19967 14.5 5.18342 15.2892 5.97559 15.9238C6.66034 16.4709 7.11354 16.833 8.16113 16.833C9.21092 16.8329 9.6627 16.4702 10.3486 15.9219C11.1407 15.2884 12.1256 14.5 13.9932 14.5C15.8621 14.5 16.8483 15.2884 17.6416 15.9219C18.3276 16.4702 18.7813 16.833 19.8301 16.833C20.8799 16.8329 21.3591 16.4503 22.0205 15.9219C22.8127 15.2884 23.7992 14.5 25.667 14.5V16.833ZM12.833 4.00586C12.9862 4.00586 13.1387 4.03603 13.2803 4.09473C13.4216 4.15341 13.5501 4.23935 13.6582 4.34766L20.0752 10.7646L20.0693 10.7705L22.5146 13.209C22.3408 13.3362 22.1745 13.4664 22.0205 13.5889C21.3591 14.1173 20.8798 14.4999 19.8301 14.5C18.7814 14.5 18.3275 14.1371 17.6416 13.5889C16.8483 12.9554 15.8621 12.167 13.9932 12.167C13.5837 12.167 13.2214 12.2101 12.8877 12.2754L15.2881 9.27734L12.833 6.82227L8.99121 10.6641L7.3418 9.01465L12.0088 4.34766C12.117 4.23935 12.2453 4.15339 12.3867 4.09473C12.5282 4.03607 12.6799 4.0059 12.833 4.00586ZM22.1699 5.16699C23.4597 5.16699 24.5056 6.2122 24.5059 7.50195C24.5059 8.79191 23.4599 9.83789 22.1699 9.83789C20.8801 9.83775 19.835 8.79182 19.835 7.50195C19.8352 6.21229 20.8802 5.16713 22.1699 5.16699Z" fill="black"/>
</svg>
