<svg width="28" height="29" viewBox="0 0 28 29" fill="none" xmlns="http://www.w3.org/2000/svg">
<path d="M14 2.83301C16.5922 2.83301 18.8539 4.24303 20.0625 6.33203C20.0636 6.334 20.0643 6.33689 20.0654 6.33887C23.1794 6.46074 25.667 9.02307 25.667 12.167C25.6669 14.5585 24.2266 16.6123 22.167 17.5127V22.667C22.1668 24.5998 20.5998 26.1668 18.667 26.167H9.33301C7.40028 26.1668 5.83318 24.5998 5.83301 22.667V17.5127C3.7734 16.6124 2.33314 14.5585 2.33301 12.167C2.33301 9.02274 4.82104 6.46024 7.93555 6.33887C9.14523 4.24405 11.4071 2.83301 14 2.83301ZM8.16699 21.5V22.667C8.16717 23.3111 8.68892 23.8328 9.33301 23.833H18.667C19.3111 23.8328 19.8328 23.3111 19.833 22.667V21.5H8.16699ZM14 5.16699C11.4228 5.16699 9.33318 7.25583 9.33301 9.83301C9.33301 10.4772 8.81117 10.9998 8.16699 11C7.52266 11 7 10.4773 7 9.83301C7.00002 9.49645 7.02536 9.16567 7.07129 8.8418C5.67483 9.30159 4.66699 10.6166 4.66699 12.167C4.66717 14.0998 6.23411 15.667 8.16699 15.667C8.81107 15.6672 9.33283 16.1889 9.33301 16.833C9.33301 17.4772 8.81117 17.9998 8.16699 18V19.167H19.833V18L19.7139 17.9941C19.1256 17.9343 18.667 17.437 18.667 16.833C18.6672 16.1889 19.1889 15.6672 19.833 15.667C21.7659 15.667 23.3328 14.0998 23.333 12.167C23.333 10.234 21.766 8.66699 19.833 8.66699C18.9448 8.66707 18.1361 8.99599 17.5186 9.54102C17.0355 9.9674 16.2985 9.92155 15.8721 9.43848C15.4457 8.9554 15.4915 8.21837 15.9746 7.79199C16.438 7.38297 16.9676 7.04629 17.5449 6.7998C16.688 5.79928 15.4178 5.16699 14 5.16699Z" fill="black"/>
</svg>
