<svg width="28" height="29" viewBox="0 0 28 29" fill="none" xmlns="http://www.w3.org/2000/svg">
<path d="M20.1778 5.0493C21.4486 4.71786 23.2477 4.9948 24.1319 6.66161C24.4827 7.32298 24.6388 7.85933 24.6866 8.48973C24.7814 9.73765 24.8413 11.3992 24.3507 12.5386C24.2462 12.7813 24.1087 13.0071 23.9728 13.2075C24.421 14.2438 24.4883 15.3415 24.6134 16.4409C24.6221 16.5177 24.6295 16.6013 24.6388 16.6909C25.2268 16.8867 25.8121 17.1288 26.3077 17.4253C26.8168 17.73 26.9848 18.3949 26.6837 18.9097C26.3822 19.4242 25.7251 19.5942 25.2159 19.2895C25.0179 19.1711 24.7911 19.0626 24.5489 18.9624C24.469 19.352 24.3482 19.7677 24.169 20.2046C24.2881 20.2736 24.409 20.3443 24.5313 20.4175C25.0404 20.722 25.2091 21.3862 24.9083 21.9009C24.6069 22.4157 23.9488 22.5864 23.4396 22.2817C23.3044 22.2009 23.175 22.126 23.0519 22.0552C22.1702 23.0093 20.7898 23.738 19.4054 24.2427C17.7016 24.8637 15.7026 25.2385 13.9855 25.2417V25.2466C12.2633 25.2466 10.2844 24.8665 8.57334 24.2427C7.19254 23.7393 5.81568 23.0135 4.93369 22.063C4.81493 22.1315 4.69056 22.204 4.56065 22.2817C4.05135 22.5864 3.39332 22.4157 3.0919 21.9009C2.79115 21.3862 2.95983 20.722 3.46885 20.4175C3.58499 20.348 3.69946 20.2801 3.8126 20.2143C3.63251 19.7769 3.5113 19.3604 3.43076 18.9702C3.1962 19.0681 2.97673 19.1744 2.78428 19.2895C2.27509 19.5942 1.61802 19.4242 1.3165 18.9097C1.01536 18.3949 1.18338 17.73 1.69248 17.4253C2.18171 17.1326 2.75852 16.8932 3.33897 16.6987C3.34846 16.6061 3.35731 16.52 3.36631 16.4409C3.49139 15.3415 3.55772 14.2438 4.00596 13.2075C3.87008 13.0072 3.73349 12.7812 3.629 12.5386C3.1384 11.3992 3.19734 9.73767 3.29209 8.48973C3.33996 7.85933 3.49598 7.32298 3.84678 6.66161C4.731 4.9946 6.53106 4.71779 7.80186 5.0493C8.11216 5.13031 8.44549 5.28419 8.7374 5.43309C9.55901 5.8522 10.329 6.36564 11.1437 6.79735C13.0463 6.59471 14.9324 6.59473 16.8351 6.79735C17.6499 6.36559 18.4206 5.85225 19.2423 5.43309C19.5343 5.28417 19.8675 5.13026 20.1778 5.0493ZM22.2433 7.68505C21.9768 7.18309 21.3762 6.97394 20.713 7.14696C20.6365 7.16696 20.473 7.23203 20.2071 7.36766C19.2823 7.83948 18.426 8.44111 17.4884 8.88817L17.212 9.02001L16.9083 8.98485C14.9541 8.75672 13.0246 8.75669 11.0704 8.98485L10.7667 9.02001L10.4903 8.88817C9.5527 8.44107 8.69648 7.83945 7.77158 7.36766C7.50545 7.23191 7.34215 7.1669 7.26572 7.14696C6.60248 6.97402 6.00185 7.18301 5.73545 7.68505C5.51096 8.10829 5.45262 8.35507 5.42979 8.65575C5.36537 9.50432 5.34315 10.5087 5.49815 11.3432L5.60654 11.229C6.01799 10.7991 6.69682 10.7877 7.12217 11.2036C7.54748 11.6195 7.55894 12.3058 7.14756 12.7358L6.08604 13.8452C5.67171 14.524 5.59958 15.3468 5.54404 16.145C5.77182 16.1047 5.96936 16.0739 6.1251 16.0542C6.71195 15.9803 7.24766 16.4015 7.32139 16.9946C7.39478 17.5882 6.97789 18.1303 6.39072 18.2046C6.15831 18.2339 5.84264 18.2873 5.48643 18.3618C5.53045 18.6467 5.60891 18.95 5.73936 19.2788C6.09872 19.1522 6.45289 19.0603 6.81065 19.0151C7.39759 18.9412 7.93334 19.3623 8.00693 19.9556C8.0764 20.5179 7.70552 21.0321 7.16709 21.1479C7.70229 21.5177 8.42442 21.885 9.30088 22.2046C10.807 22.7536 12.5397 23.0796 13.9855 23.0796C15.4272 23.0763 17.1802 22.7509 18.6788 22.2046C19.5569 21.8845 20.2791 21.5155 20.8146 21.145C20.2861 21.0216 19.9246 20.5115 19.9933 19.9556C20.0669 19.3623 20.6026 18.9412 21.1896 19.0151C21.5409 19.0595 21.8885 19.1499 22.2413 19.2729C22.371 18.9448 22.4496 18.6424 22.4933 18.3579C22.1454 18.2857 21.8374 18.2334 21.6095 18.2046C21.0223 18.1303 20.6054 17.5882 20.6788 16.9946C20.7525 16.4015 21.2883 15.9803 21.8751 16.0542C22.0255 16.0732 22.2148 16.1029 22.4327 16.1411C22.3772 15.3443 22.3071 14.5228 21.8937 13.8452L20.8321 12.7358C20.4207 12.3058 20.4321 11.6195 20.8575 11.2036C21.2828 10.788 21.9608 10.7994 22.3722 11.229L22.4815 11.3432C22.6365 10.5088 22.6143 9.50429 22.5499 8.65575C22.5271 8.35507 22.4678 8.10829 22.2433 7.68505ZM14.0118 17.8384C14.3516 17.8384 14.6981 17.8913 14.9903 18.0054C15.1337 18.0613 15.3083 18.1486 15.461 18.2895C15.6143 18.431 15.8105 18.6918 15.8106 19.064C15.8106 19.4363 15.6144 19.6978 15.461 19.8393C15.3083 19.9802 15.1337 20.0676 14.9903 20.1235C14.6981 20.2375 14.3516 20.2895 14.0118 20.2895C13.6722 20.2895 13.3264 20.2375 13.0343 20.1235C12.8909 20.0676 12.7163 19.9802 12.5636 19.8393C12.4103 19.6978 12.214 19.4363 12.214 19.064C12.2141 18.6918 12.4103 18.431 12.5636 18.2895C12.7163 18.1486 12.8909 18.0613 13.0343 18.0054C13.3264 17.8914 13.6722 17.8384 14.0118 17.8384ZM10.4737 14.4263C11.0327 14.4264 11.4069 14.7918 11.5978 15.102C11.7966 15.4255 11.8917 15.8193 11.8917 16.2085C11.8916 16.5976 11.7965 16.9906 11.5978 17.314C11.407 17.6242 11.0328 17.9896 10.4737 17.9897C9.91445 17.9897 9.53952 17.6243 9.34873 17.314C9.14999 16.9907 9.05484 16.5975 9.05479 16.2085C9.05479 15.8193 9.1499 15.4255 9.34873 15.102C9.53954 14.7917 9.9145 14.4263 10.4737 14.4263ZM17.5431 14.4263C18.1022 14.4263 18.4772 14.7917 18.6681 15.102C18.8669 15.4255 18.962 15.8193 18.962 16.2085C18.962 16.5975 18.8668 16.9906 18.6681 17.314C18.4772 17.6243 18.1023 17.9897 17.5431 17.9897C16.984 17.9896 16.6098 17.6242 16.419 17.314C16.2203 16.9907 16.1252 16.5975 16.1251 16.2085C16.1251 15.8193 16.2202 15.4255 16.419 15.102C16.6098 14.7918 16.9841 14.4264 17.5431 14.4263Z" fill="black"/>
</svg>
