<svg width="28" height="29" viewBox="0 0 28 29" fill="none" xmlns="http://www.w3.org/2000/svg">
<path d="M25.6666 14.4999C25.6666 20.9432 20.4432 26.1666 13.9999 26.1666C7.55659 26.1666 2.33325 20.9432 2.33325 14.4999C2.33325 8.05659 7.55659 2.83325 13.9999 2.83325C20.4432 2.83325 25.6666 8.05659 25.6666 14.4999ZM19.8848 21.9316L6.56825 8.61504C5.28633 10.2317 4.52075 12.2764 4.52075 14.4999C4.52075 19.7351 8.76473 23.9791 13.9999 23.9791C16.2234 23.9791 18.2681 23.2135 19.8848 21.9316ZM17.7342 16.6874L21.4316 20.3848C22.7135 18.7681 23.4791 16.7234 23.4791 14.4999C23.4791 9.26473 19.2351 5.02075 13.9999 5.02075C11.7764 5.02075 9.73174 5.78633 8.11504 7.06825L14.8175 13.7708H20.5624C20.9676 13.7732 21.2916 14.0987 21.2916 14.4999V15.9583C21.2916 16.3595 20.9676 16.685 20.5624 16.6874H17.7342ZM9.66156 13.7708L12.5782 16.6874H7.43742C7.03469 16.6874 6.70825 16.361 6.70825 15.9583V14.4999C6.70825 14.098 7.03346 13.772 7.43742 13.7708H9.66156ZM15.0937 7.20825C15.2964 7.20976 15.4552 7.37578 15.5164 7.56673C15.7057 8.15863 16.327 8.66658 16.9166 8.66658C18.2585 8.66658 19.4075 9.65055 19.7599 11.1746C19.8095 11.389 19.6382 11.5833 19.4183 11.5833H18.7623C18.5609 11.5833 18.4017 11.4165 18.3414 11.2245C18.1537 10.627 17.5272 10.1477 16.9166 10.1477C15.5747 10.1267 14.4257 9.14109 14.0733 7.61686C14.0239 7.40326 14.1938 7.20953 14.4149 7.20825H15.0937Z" fill="black"/>
</svg>
