<svg width="28" height="29" viewBox="0 0 28 29" fill="none" xmlns="http://www.w3.org/2000/svg">
<path d="M21.3466 3.15178C21.7728 2.72702 22.4642 2.72713 22.8905 3.15178L25.3466 5.60002C25.5512 5.80397 25.6668 6.08019 25.6669 6.36858C25.6669 6.65708 25.5513 6.9341 25.3466 7.13811L22.2352 10.2387C22.0306 10.4424 21.7531 10.5571 21.4638 10.5571H19.0077C18.7866 10.5571 18.581 10.4909 18.4091 10.3783L17.2518 11.5307C17.2389 11.544 17.2262 11.5572 17.2128 11.5697L11.2177 17.5463L11.6737 18.0004C12.1 18.4252 12.1 19.1137 11.6737 19.5385C11.2474 19.9633 10.557 19.9633 10.1307 19.5385L8.90223 18.3149C8.47614 17.8901 8.47605 17.2015 8.90223 16.7768L14.5731 11.1244C13.4819 10.8908 12.357 11.19 11.5927 11.9516C11.3644 12.1791 11.1216 12.5457 11.0155 12.81C11.0104 12.8227 11.0045 12.8356 10.9989 12.8481C10.5041 13.9572 9.41911 14.6708 8.32118 14.7924C7.5295 14.8801 6.931 14.9513 6.48719 15.1694C5.23168 15.8306 4.58602 16.9905 4.52137 18.3031C4.45558 19.6402 5.00116 21.1415 6.18837 22.3246C7.37577 23.5079 8.88262 24.0514 10.2245 23.9858C11.5418 23.9213 12.7055 23.278 13.369 22.0268C13.5877 21.5846 13.659 20.9884 13.747 20.1996C13.8682 19.1125 14.5768 18.0378 15.6776 17.5405C15.9151 17.4253 16.3809 17.242 16.7782 17.143C16.9741 17.094 17.2319 16.8792 17.4003 16.5317L16.0985 15.8022C15.5732 15.5077 15.3863 14.8443 15.6815 14.3207C15.9771 13.7971 16.6434 13.6111 17.1688 13.9057L18.4589 14.6293C19.5094 15.1708 19.7671 16.3514 19.4706 17.2377C19.4611 17.2661 19.4502 17.2941 19.4384 17.3217C19.1136 18.0768 18.4092 18.9799 17.3075 19.2543C17.198 19.2816 17.0554 19.3274 16.914 19.3803C16.7698 19.4342 16.6658 19.481 16.6307 19.4985C16.6161 19.5058 16.6008 19.5123 16.5858 19.519C16.2254 19.6786 15.9587 20.0656 15.9169 20.4399C15.9125 20.4795 15.9078 20.5209 15.9032 20.5629C15.8295 21.2354 15.7244 22.1978 15.3173 23.0092L15.3075 23.0287C14.2509 25.0341 12.3472 26.0599 10.3319 26.1586C8.33754 26.2562 6.24163 25.4533 4.6454 23.8627C3.04926 22.2722 2.24295 20.184 2.34071 18.1967C2.43963 16.1883 3.46975 14.2907 5.48231 13.2377L5.50184 13.228C6.31614 12.8222 7.28204 12.7174 7.95692 12.644C7.99906 12.6394 8.0402 12.6347 8.07997 12.6303C8.45082 12.5892 8.83405 12.3302 8.99794 11.978C9.22155 11.4328 9.62837 10.8324 10.0487 10.4135C11.7035 8.76452 14.2065 8.44386 16.2841 9.42033L17.9159 7.79436V7.0219C17.9159 6.73353 18.0307 6.45634 18.2352 6.25236L21.3466 3.15178ZM6.44618 18.0004C6.87249 17.5757 7.56385 17.5756 7.99012 18.0004L10.4462 20.4487C10.8722 20.8735 10.8724 21.562 10.4462 21.9867C10.0199 22.4115 9.32852 22.4115 8.90223 21.9867L6.44618 19.5395C6.01987 19.1147 6.01987 18.4252 6.44618 18.0004ZM20.0995 7.47209V8.38127H21.0116L23.0311 6.36858L22.119 5.4594L20.0995 7.47209Z" fill="black"/>
</svg>
